mtllib snake.mtl
o snake
usemtl snake
v -4.208248416404103e-9 0.000051924027502536774 0.4375
v -3.841931217607453e-9 0.000024565495550632477 0.5
v -0.011266693472862244 0.008210297673940659 0.5
v -0.012282928451895714 0.00897599570453167 0.4375
v -0.0069631957449018955 0.021455086767673492 0.5
v -0.0075912633910775185 0.023415442556142807 0.4375
v 0.0069632017984986305 0.021455083042383194 0.5
v 0.007591269910335541 0.02341543510556221 0.4375
v 0.0069632017984986305 0.021455083042383194 0.5
v -0.0069631957449018955 0.021455086767673492 0.5
v -0.013433609157800674 0.025272250175476074 0.5070995688438416
v 0.01343362033367157 0.025272242724895477 0.5070995688438416
v 0.011266691610217094 0.008210291154682636 0.5
v 0.012282924726605415 0.008975987322628498 0.4375
v -3.841931217607453e-9 0.000024565495550632477 0.5
v -4.208248416404103e-9 0.000051924027502536774 0.4375
v -2.6474642478291344e-9 0.000029210001230239868 -0.5
v -0.007727335207164288 0.005643448792397976 -0.5
v -0.004775752779096365 0.014727473258972168 -0.5
v 0.004775757435709238 0.014727471396327019 -0.5
v 0.007727333344519138 0.005643443204462528 -0.5
v 0.007727333344519138 0.005643443204462528 -0.5
v 0.01011426281183958 0.007356647402048111 -0.4375
v -3.4652498648313212e-9 0.000008208677172660828 -0.4375
v -2.6474642478291344e-9 0.000029210001230239868 -0.5
v 0.01011426281183958 0.007356647402048111 -0.4375
v 0.012222561053931713 0.00890300516039133 -0.375
v -4.187574287328744e-9 0.000022798776626586914 -0.375
v -3.4652498648313212e-9 0.000008208677172660828 -0.4375
v 0.014052229933440685 0.010242525488138199 -0.3125
v -4.814436405098377e-9 0.00003298744559288025 -0.3125
v 0.015603269450366497 0.011368196457624435 -0.25
v -5.34583755040785e-9 0.00003176182508468628 -0.25
v 0.016875678673386574 0.012297363020479679 -0.1875
v -5.7817772791679545e-9 0.00003647059202194214 -0.1875
v 0.017869459465146065 0.012994272634387016 -0.125
v -6.122255591378689e-9 0.000011356547474861145 -0.125
v 0.018584609031677246 0.013519885018467903 -0.0625
v -6.3672720429508445e-9 0.00001738220453262329 -0.0625
v 0.019021129235625267 0.01382249966263771 2.701512347158541e-10
v -6.51682707797363e-9 0.0000028461217880249023 8.742277457507441e-10
v 0.019179020076990128 0.013958845287561417 0.0625
v -6.570921140536257e-9 0.000024477019906044006 0.0625
v 0.01905827969312668 0.013866077177226543 0.125
v -6.5295537865495135e-9 0.000019431114196777344 0.125
v 0.018658911809325218 0.013571809977293015 0.1875
v -6.392725016013401e-9 0.000015322118997573853 0.1875
v 0.016767846420407295 0.012198972515761852 0.25
v -5.7196940517201256e-9 0.00001642480492591858 0.25
v 0.014804402366280556 0.01078144833445549 0.3125
v -5.0721316036117514e-9 0.000025424174964427948 0.3125
v 0.013728244230151176 0.009996828623116016 0.375
v -4.6548063181717225e-9 0.000022680498659610748 0.375
v 0.004775757435709238 0.014727471396327019 -0.5
v 0.006250960752367973 0.019246678799390793 -0.4375
v 0.006250960752367973 0.019246678799390793 -0.4375
v 0.007553962524980307 0.02327148988842964 -0.375
v 0.008684759959578514 0.026761915534734726 -0.3125
v 0.009643356315791607 0.02971094474196434 -0.25
v 0.010429748333990574 0.032135918736457825 -0.1875
v 0.011043938808143139 0.03400108590722084 -0.125
v 0.011485925875604153 0.03536740690469742 -0.0625
v 0.01175571046769619 0.036183182150125504 -7.072651353468018e-10
v 0.011853291653096676 0.036505140364170074 0.0625
v 0.01177867129445076 0.03627043217420578 0.125
v 0.011531846597790718 0.03550667688250542 0.1875
v 0.01036310289055109 0.03191076219081879 0.25
v 0.009149627760052681 0.02818506769835949 0.3125
v 0.00848452653735876 0.02613535337150097 0.375
v -0.004775752779096365 0.014727473258972168 -0.5
v -0.006250955164432526 0.01924668252468109 -0.4375
v -0.006250955164432526 0.01924668252468109 -0.4375
v -0.007553956005722284 0.02327149733901024 -0.375
v -0.008684752508997917 0.026761922985315323 -0.3125
v -0.00964334700256586 0.02971094846725464 -0.25
v -0.010429739020764828 0.03213592618703842 -0.1875
v -0.011043929494917393 0.03400109335780144 -0.125
v -0.011485914699733257 0.035367414355278015 -0.0625
v -0.011755699291825294 0.0361831896007061 -7.072651353468018e-10
v -0.01185328047722578 0.03650514781475067 0.0625
v -0.011778660118579865 0.03627043962478638 0.125
v -0.011531835421919823 0.035506684333086014 0.1875
v -0.010363094508647919 0.031910769641399384 0.25
v -0.00914961937814951 0.028185075148940086 0.3125
v -0.008484519086778164 0.026135357096791267 0.375
v -0.007727335207164288 0.005643448792397976 -0.5
v -0.01011426467448473 0.007356654852628708 -0.4375
v -0.01011426467448473 0.007356654852628708 -0.4375
v -0.012222562916576862 0.008903014473617077 -0.375
v -0.014052233658730984 0.010242534801363945 -0.3125
v -0.015603273175656796 0.01136820763349533 -0.25
v -0.016875682398676872 0.012297374196350574 -0.1875
v -0.017869463190436363 0.012994285672903061 -0.125
v -0.018584612756967545 0.013519898056983948 -0.0625
v -0.019021132960915565 0.01382251176983118 2.701512347158541e-10
v -0.019179023802280426 0.013958858326077461 0.0625
v -0.019058283418416977 0.013866089284420013 0.125
v -0.018658915534615517 0.013571822084486485 0.1875
v -0.016767850145697594 0.012198984622955322 0.25
v -0.01480440516024828 0.010781457647681236 0.3125
v -0.013728247955441475 0.009996838867664337 0.375
v -2.6474642478291344e-9 0.000029210001230239868 -0.5
v -3.4652498648313212e-9 0.000008208677172660828 -0.4375
v -3.4652498648313212e-9 0.000008208677172660828 -0.4375
v -4.187574287328744e-9 0.000022798776626586914 -0.375
v -4.814436405098377e-9 0.00003298744559288025 -0.3125
v -5.34583755040785e-9 0.00003176182508468628 -0.25
v -5.7817772791679545e-9 0.00003647059202194214 -0.1875
v -6.122255591378689e-9 0.000011356547474861145 -0.125
v -6.3672720429508445e-9 0.00001738220453262329 -0.0625
v -6.51682707797363e-9 0.0000028461217880249023 8.742277457507441e-10
v -6.570921140536257e-9 0.000024477019906044006 0.0625
v -6.5295537865495135e-9 0.000019431114196777344 0.125
v -6.392725016013401e-9 0.000015322118997573853 0.1875
v -5.7196940517201256e-9 0.00001642480492591858 0.25
v -5.0721316036117514e-9 0.000025424174964427948 0.3125
v -4.6548063181717225e-9 0.000022680498659610748 0.375
v -7.560878145795868e-9 0.00010520219802856445 0.5070995688438416
v 0.02173604443669319 0.00865018181502819 0.5070995688438416
v 0.024271393194794655 0.007402983494102955 0.5191688537597656
v -8.44373815311883e-9 0.000040862709283828735 0.5191688537597656
v 0.011266691610217094 0.008210291154682636 0.5
v 0.02173604443669319 0.00865018181502819 0.5070995688438416
v -0.011266693472862244 0.008210297673940659 0.5
v -0.02173604816198349 0.008650191128253937 0.5070995688438416
v -3.841931217607453e-9 0.000024565495550632477 0.5
v 0.011266691610217094 0.008210291154682636 0.5
v -0.011266693472862244 0.008210297673940659 0.5
v -0.02173604816198349 0.008650191128253937 0.5070995688438416
v -0.024271398782730103 0.007402995601296425 0.5191688537597656
v -5.741249697877038e-9 0.0000751148909330368 0.5401125550270081
v -0.016120173037052155 0.008882353082299232 0.5401125550270081
v -0.015000540763139725 0.0285373292863369 0.5191688537597656
v 0.015000552870333195 0.028537319973111153 0.5191688537597656
v 0.024271393194794655 0.007402983494102955 0.5191688537597656
v -0.024271398782730103 0.007402995601296425 0.5191688537597656
v -0.009962809272110462 0.024664510041475296 0.5401125550270081
v -0.016120173037052155 0.008882353082299232 0.5401125550270081
v -0.012091978453099728 0.00649921502918005 0.5628311634063721
v -0.0074732499197125435 0.016933899372816086 0.5628311634063721
v 0.009962817654013634 0.0246645025908947 0.5401125550270081
v 0.016120171174407005 0.008882343769073486 0.5401125550270081
v 0.016120171174407005 0.008882343769073486 0.5401125550270081
v -0.012091978453099728 0.00649921502918005 0.5628311634063721
v -4.304582024161618e-9 0.000050224363803863525 0.5628311634063721
v 0.012091976590454578 0.006499208509922028 0.5628311634063721
v 0.0074732559733092785 0.016933895647525787 0.5628311634063721
v -0.0074732499197125435 0.016933899372816086 0.5628311634063721
v 0.012091976590454578 0.006499208509922028 0.5628311634063721
v -4.304582024161618e-9 0.000050224363803863525 0.5628311634063721
v 0.0074732559733092785 0.016933895647525787 0.5628311634063721
v -0.012091978453099728 0.00649921502918005 0.5628311634063721
v 0.012091976590454578 0.006499208509922028 0.5628311634063721
vt 0.4375 1.59375
vt 0.4375 1.75
vt 0.3624999523162842 1.75
vt 0.3624999523162842 1.59375
vt 0.28749996423721313 1.75
vt 0.28749996423721313 1.59375
vt 0.21250003576278687 1.75
vt 0.21250003576278687 1.59375
vt 0.6335033178329468 0.2214643359184265
vt 0.690407395362854 0.22225075960159302
vt 0.7074906229972839 0.2512786388397217
vt 0.6160496473312378 0.25149333477020264
vt 0.13750001788139343 1.75
vt 0.13750001788139343 1.59375
vt 0.0625 1.75
vt 0.0625 1.59375
vt 0.9806890487670898 0.8206426501274109
vt 0.9829272627830505 0.8190165162086487
vt 0.9820723533630371 0.8163853287696838
vt 0.9793057441711426 0.8163853287696838
vt 0.9784508347511292 0.8190165162086487
vt 0.6062500476837158 0.8125
vt 0.6062500476837158 0.96875
vt 0.53125 0.96875
vt 0.53125 0.8125
vt 0.13750001788139343 -0.59375
vt 0.13750001788139343 -0.4375
vt 0.0625 -0.4375
vt 0.0625 -0.59375
vt 0.13750001788139343 -0.2812497615814209
vt 0.0625 -0.28125
vt 0.13750001788139343 -0.1249997615814209
vt 0.0625 -0.12499988079071045
vt 0.13750001788139343 0.03125029802322388
vt 0.0625 0.03125011920928955
vt 0.13750001788139343 0.18750059604644775
vt 0.0625 0.18750011920928955
vt 0.13750001788139343 0.34375059604644775
vt 0.0625 0.34375011920928955
vt 0.13750001788139343 0.5000005960464478
vt 0.0625 0.5
vt 0.13750001788139343 0.6562505960464478
vt 0.0625 0.65625
vt 0.13750001788139343 0.8125005960464478
vt 0.0625 0.8125
vt 0.13750001788139343 0.9687505960464478
vt 0.0625 0.96875
vt 0.13750001788139343 1.125000238418579
vt 0.0625 1.125
vt 0.13750001788139343 1.28125
vt 0.0625 1.28125
vt 0.13750001788139343 1.437500238418579
vt 0.0625 1.4375
vt 0.6812500357627869 0.8125
vt 0.6812500357627869 0.96875
vt 0.21250003576278687 -0.59375
vt 0.21250003576278687 -0.4375
vt 0.21250003576278687 -0.2812497615814209
vt 0.21250003576278687 -0.1249997615814209
vt 0.2124999761581421 0.03125029802322388
vt 0.2124999761581421 0.18750059604644775
vt 0.2124999761581421 0.34375059604644775
vt 0.2124999761581421 0.5000005960464478
vt 0.2124999761581421 0.6562505960464478
vt 0.2124999761581421 0.8125005960464478
vt 0.21250003576278687 0.9687505960464478
vt 0.21250003576278687 1.125000238418579
vt 0.21250003576278687 1.28125
vt 0.21250003576278687 1.437500238418579
vt 0.7562499642372131 0.8125
vt 0.7562499642372131 0.96875
vt 0.28749996423721313 -0.59375
vt 0.28749996423721313 -0.4375
vt 0.28749996423721313 -0.2812497615814209
vt 0.28749996423721313 -0.1249997615814209
vt 0.28749996423721313 0.03125029802322388
vt 0.28749996423721313 0.18750059604644775
vt 0.28749996423721313 0.34375059604644775
vt 0.28749996423721313 0.5000005960464478
vt 0.28749996423721313 0.6562505960464478
vt 0.28749996423721313 0.8125005960464478
vt 0.28749996423721313 0.9687505960464478
vt 0.28749996423721313 1.125000238418579
vt 0.28749996423721313 1.28125
vt 0.28749996423721313 1.437500238418579
vt 0.8312499523162842 0.8125
vt 0.8312499523162842 0.96875
vt 0.3624999523162842 -0.59375
vt 0.3624999523162842 -0.4375
vt 0.3624999523162842 -0.2812497615814209
vt 0.3624999523162842 -0.1249997615814209
vt 0.3624999523162842 0.03125029802322388
vt 0.3624999523162842 0.18750059604644775
vt 0.3624999523162842 0.34375059604644775
vt 0.3624999523162842 0.5000005960464478
vt 0.3624999523162842 0.6562505960464478
vt 0.3624999523162842 0.8125005960464478
vt 0.3624999523162842 0.9687505960464478
vt 0.3624999523162842 1.125000238418579
vt 0.3624999523162842 1.28125
vt 0.3624999523162842 1.437500238418579
vt 0.90625 0.8125
vt 0.90625 0.96875
vt 0.4375 -0.59375
vt 0.4375 -0.4375
vt 0.4375 -0.28125
vt 0.4375 -0.125
vt 0.4375 0.03125
vt 0.4375 0.1875
vt 0.4375 0.34375
vt 0.4375 0.5
vt 0.4375 0.65625
vt 0.4375 0.8125
vt 0.4375 0.96875
vt 0.4375 1.125
vt 0.4375 1.28125
vt 0.4375 1.4375
vt 0.8719358444213867 0.3978426456451416
vt 0.7908718585968018 0.39785051345825195
vt 0.783820629119873 0.3558553457260132
vt 0.8719358444213867 0.3557724952697754
vt 0.5795626640319824 0.20408648252487183
vt 0.5536801815032959 0.2467494010925293
vt 0.744106113910675 0.20408648252487183
vt 0.7699406147003174 0.2466924786567688
vt 0.8719358444213867 0.42275381088256836
vt 0.8248125314712524 0.42489945888519287
vt 0.9190590977668762 0.42489945888519287
vt 0.9529999494552612 0.39785051345825195
vt 0.9600510001182556 0.3558553457260132
vt 0.8719358444213867 0.2828626036643982
vt 0.935334324836731 0.28252196311950684
vt 0.7087851762771606 0.29353058338165283
vt 0.6150069236755371 0.2927299737930298
vt 0.5399491190910339 0.2934792637825012
vt 0.7837175130844116 0.29341936111450195
vt 0.6963568329811096 0.36378711462020874
vt 0.7546355128288269 0.3769824504852295
vt 0.7283375859260559 0.4567464590072632
vt 0.6899741291999817 0.44533318281173706
vt 0.627583920955658 0.36429810523986816
vt 0.5695416927337646 0.3775554895401001
vt 0.8085373044013977 0.28252196311950684
vt 0.7280950546264648 0.5258722901344299
vt 0.7809922695159912 0.49766063690185547
vt 0.8338894844055176 0.5258722901344299
vt 0.8136847019195557 0.5715197324752808
vt 0.7483000755310059 0.5715197324752808
vt 0.8246485590934753 0.20408642292022705
vt 0.8719358444213867 0.20415174961090088
vt 0.634918749332428 0.4463460445404053
vt 0.9192231893539429 0.20408642292022705
vt 0.5964800715446472 0.4577404856681824
vn -0.5877854135596091 -0.8090168706522455 -0.0001029883844416489
vn -0.5877853691516851 -0.8090168319640838 -0.0003541327641363849
vn -0.8445263319916954 -0.5354660036049784 0.007171719177862321
vn -0.9432445902215277 -0.3318370331084108 0.013184326893301401
vn -0.7699549218366645 0.6374953405905924 0.02773281566629661
vn -0.6067144114553537 0.794064560432793 0.03686593003111356
vn 0.3683079274483718 0.9291235439039182 0.032843732158642586
vn 0.5676832721372058 0.8223529351180285 0.03835821474415504
vn 0.22298235980117614 0.759230725728183 -0.6114307584083054
vn -0.48479288816830424 0.43066775799133755 -0.7612497210562043
vn -0.49549654847609587 0.7642957083403541 -0.4127169013510255
vn 0.3170320078008509 0.8195927102707659 -0.4772405004824942
vn 0.9978816953127162 -0.06319323830801259 0.015451109732513192
vn 0.9581164467213111 -0.2859535142534071 0.015603275561739417
vn 0.5877848869921242 -0.8090171822662976 -0.00035414905907478256
vn 0.5877849568099959 -0.8090171963236089 0.0001435289476937891
vn 0 0 -1
vn 0 0 -1
vn 0 0 -1
vn 0 0 -1
vn 0 0 -1
vn 0.8285902786501402 -0.5596179994529596 -0.01630474822714056
vn 0.9926833005690341 -0.11564120756694239 -0.034741558454216864
vn 0.5877849411473359 -0.8090171747657907 -0.0002718352457580607
vn 0.5877848737912504 -0.8090172237014817 -0.00027183920029407794
vn 0.8356771585918 -0.5490267353500853 -0.014605837146936314
vn 0.9380077003025419 -0.34591418059910783 -0.022021213263228888
vn 0.5877849544987519 -0.8090171931424521 0.00016871516954170305
vn 0.587784952381197 -0.8090171902278855 0.00018886506065141727
vn 0.9414464069175958 -0.33660888077887124 -0.019316425206141605
vn 0.5877849326206009 -0.8090172226343815 0.00008040614010762994
vn 0.9439106088866506 -0.3297947978610186 -0.016375400301750997
vn 0.5877849344874713 -0.8090172252039102 0.000010626606828601928
vn 0.9458059234329377 -0.3244524057591567 -0.013483011394476135
vn 0.5877849330372469 -0.8090172232078457 -0.00007104551903644621
vn 0.9473546905872627 -0.32002112818266004 -0.010274616246310453
vn 0.5877849524568676 -0.8090171903320373 -0.00018818218294226757
vn 0.948680321683057 -0.3161546224733394 -0.007204300109764345
vn 0.5877849344792486 -0.8090172251925926 -0.00001187027168722868
vn 0.9498702237341143 -0.31262036992357545 -0.0038810272029771034
vn 0.5877849342400184 -0.8090172248633202 -0.00003090160618944799
vn 0.9509834677814143 -0.30924078921756415 -0.0007604541630767456
vn 0.5877849549040592 -0.8090171937003102 0.00016457736160375573
vn 0.9520719571081169 -0.3058641528404381 0.0024715370766119015
vn 0.5877849617607499 -0.8090172031377424 -0.00006127885882111704
vn 0.9555496465017307 -0.2946397330705351 0.01059720560059023
vn 0.5877850015961262 -0.8090171759276588 -0.000030865477829676526
vn 0.9590356087235363 -0.2823398631955503 0.02312796685819895
vn 0.5877850012241537 -0.8090171754156821 0.000047099394230063265
vn 0.9581778089187697 -0.2854613673599091 0.02017657653410372
vn 0.5877849331629784 -0.8090172233809007 0.00006796801460255725
vn 0.9576212710338814 -0.28766801792760227 0.014443431900295112
vn 0.5877849316416011 -0.8090172212869026 0.00009897624599773429
vn 0.7868171982744624 0.6139658134365586 -0.06296567660805631
vn 0.4158036408243545 0.9063277238976898 -0.07534845168710806
vn 0.7792330522347125 0.6241876593579686 -0.056441263364617765
vn 0.6179060549378135 0.7840145496049222 -0.05927304006864021
vn 0.6103727829299275 0.7904647007918243 -0.05109425271464235
vn 0.60486360327389 0.7951765909306276 -0.04282768579402088
vn 0.6005414150911417 0.7988528043302858 -0.03441229103049364
vn 0.5969363873253818 0.8018669848630554 -0.02600553928597031
vn 0.593761270452302 0.8044458101759236 -0.01773392797069808
vn 0.5908243102391665 0.8067460713897205 -0.009349370442180146
vn 0.5879754010780964 0.8088781488987122 -0.0010334221036036257
vn 0.5850852104111702 0.8109359106727756 0.007631863431221805
vn 0.575222371160528 0.8173384044135191 0.032820060743738305
vn 0.5640505024397426 0.8236387471533938 0.058874823864380296
vn 0.5670433696842642 0.8222860179618171 0.04803666892711197
vn 0.5691607095847401 0.8213538072005336 0.037868325315278124
vn -0.3404714147159595 0.9371943418877466 -0.07580225125223285
vn -0.7339558471747223 0.675963211041555 -0.06620084377427607
vn -0.3525998306730744 0.9333397778849006 -0.06745530688599542
vn -0.5546701486806924 0.8298948311900264 -0.06012982061020925
vn -0.5631527382466462 0.8247537130834033 -0.0513839095480626
vn -0.5693455856593739 0.8209838158766556 -0.04279226751166932
vn -0.5741838805725882 0.8180182566061291 -0.03404413531980007
vn -0.5781631691006407 0.8155192448887437 -0.025606856730132733
vn -0.5815974538714443 0.8132968039474621 -0.017108779591094282
vn -0.5846893173374181 0.8112096761576236 -0.008789965855891972
vn -0.5875946923206009 0.8091553509972442 -0.0003090456034751773
vn -0.5904415413213624 0.8070379718947168 0.008276364063765244
vn -0.5995171618982037 0.7995546993298123 0.03593682469468728
vn -0.6090578472035062 0.7910040066636768 0.057975858784846165
vn -0.6068957417227501 0.793496902733206 0.0451688391659765
vn -0.6052676911997724 0.7951087193596239 0.03812015723991602
vn -0.9987198328815715 -0.03427345379264764 -0.03720249688031122
vn -0.871424357851563 -0.4901282977846069 -0.01984540888353412
vn -0.9983652411752609 -0.04700686493725744 -0.03251460997510747
vn -0.9621569525657956 -0.2714881006114983 -0.02341388168720891
vn -0.9594910581012809 -0.28104340561936697 -0.019786702139368874
vn -0.9574891495650558 -0.28800738359660727 -0.016317948983331672
vn -0.9558889289567672 -0.29344555796183874 -0.012886427369501855
vn -0.954535873220189 -0.29794051359080603 -0.009628971752882524
vn -0.9533359931379157 -0.30184787280545644 -0.006192404263703275
vn -0.9522177600994722 -0.30540543871530296 -0.002975794727024915
vn -0.9511291777030881 -0.308793001713766 0.0004115998656808279
vn -0.9500218633369019 -0.3121635915009436 0.003514444922472302
vn -0.9461780917312727 -0.3232679411753575 0.015647905163714726
vn -0.9418621527211599 -0.3353002024365049 0.021667014503649287
vn -0.9430504820268039 -0.33228724430183804 0.015523389555876461
vn -0.9438132605436643 -0.3301453577008689 0.014851666926732354
vn -0.5877854906569728 -0.809016775519605 -0.0002718473880990613
vn -0.587785529667571 -0.8090167471743526 -0.00027185445080508703
vn -0.5877855018939037 -0.809016790985903 0.00018885498037372227
vn -0.5877854774234686 -0.8090168169099057 0.00014995675756125055
vn -0.5877854837380174 -0.8090168256011311 0.000031640698651973956
vn -0.5877855226628526 -0.8090167971378349 0.0000360110631815103
vn -0.587785472407854 -0.8090168100065085 -0.00019887978513017044
vn -0.5877854831562193 -0.8090168248003551 -0.00005459635219863723
vn -0.5877855484408371 -0.8090167730135164 -0.00010013441461008653
vn -0.5877854794856485 -0.809016819748251 0.00012437946799800123
vn -0.587785550652053 -0.8090167760569915 0.00005003013285082516
vn -0.5877854830686731 -0.8090168246798582 -0.00005725946545763929
vn -0.5877854840084556 -0.8090168259733572 -0.000008996671592247036
vn -0.5877854821020163 -0.8090168233493702 0.00008104192961929907
vn -0.5877854839530788 -0.8090168258971376 0.000016412363081579225
vn -0.5877854677325886 -0.8090168035715615 0.00023550209292411332
vn 0.025331798350985032 -0.9940134651446957 -0.10628043612697466
vn 0.39714473382730603 -0.8888161755350097 -0.22865228295505222
vn 0.30923702831474303 -0.9501129240901974 0.040717217437363874
vn 0.036890424424892175 -0.9991070529825832 0.020595952665739232
vn 0.5852689782476914 0.24702470171001686 -0.7722946457447317
vn 0.8306299424953156 0.3924235690666416 -0.3950413156509422
vn -0.5471808378786728 0.17779004783276245 -0.8179143167533001
vn -0.7492221552019428 0.3444215636093967 -0.5657207338213919
vn 0.18412476704296424 -0.9539058766312237 -0.23698449039924666
vn 0.45526246245225965 -0.6266155977819922 -0.6325258752795978
vn -0.4330132059060495 -0.8541543585246429 -0.2879581485638511
vn -0.33052221210358373 -0.9282931165167473 -0.17037299414454754
vn -0.35115784686572954 -0.9355018809501613 0.03904353113301961
vn -0.0035019191037521783 -0.9990866796125785 0.0425857157190497
vn -0.47534684425819074 -0.8759026130194383 0.08270423302044191
vn -0.5056338864305073 0.8604117560471747 0.06345063395268842
vn 0.44268367924752206 0.8939200292115599 0.07027191118989753
vn 0.9036125133058014 0.3822883149208768 0.1932357887973383
vn -0.9092771423272143 0.4112168258044331 0.06415450581667069
vn -0.42668063380638116 0.8624904344152886 0.27212843893410227
vn -0.8916774513456736 0.3648053457307392 0.2680081761587874
vn -0.903822724627873 0.3715045768954559 0.2123413096690706
vn -0.24059226958298185 0.9105408730709923 0.33620035437819634
vn 0.5298546534599384 0.7830759260191418 0.3256472636091267
vn 0.8975327013343258 0.3622269331771313 0.25144919748648636
vn 0.405125547175008 -0.9115516887400158 0.07033356084669697
vn 0 0 1
vn 0 0 1
vn 0 0 1
vn 0 0 1
vn 0 0 1
vn 0.4756667025509545 -0.8796143545803192 -0.004446942831950091
vn -0.21348063917225255 -0.9769399885473494 -0.0037782900512317707
vn 0.6825292078237054 0.6696613399377994 0.2927585528387789
vn -0.47056511810381113 -0.8823181534366007 -0.009118428602212101
vn 0.8958682410772113 0.3965394493776168 0.20044091327999905
f 1/1/1 2/2/2 3/3/3
f 1/1/1 3/3/3 4/4/4
f 4/4/4 3/3/3 5/5/5
f 4/4/4 5/5/5 6/6/6
f 6/6/6 5/5/5 7/7/7
f 6/6/6 7/7/7 8/8/8
f 9/9/9 10/10/10 11/11/11
f 9/9/9 11/11/11 12/12/12
f 8/8/8 7/7/7 13/13/13
f 8/8/8 13/13/13 14/14/14
f 14/14/14 13/13/13 15/15/15
f 14/14/14 15/15/15 16/16/16
f 17/17/17 18/18/18 19/19/19
f 17/17/17 19/19/19 20/20/20
f 17/17/17 20/20/20 21/21/21
f 22/22/22 23/23/23 24/24/24
f 22/22/22 24/24/24 25/25/25
f 26/26/26 27/27/27 28/28/28
f 26/26/26 28/28/28 29/29/29
f 27/27/27 30/30/30 31/31/31
f 27/27/27 31/31/31 28/28/28
f 30/30/30 32/32/32 33/33/33
f 30/30/30 33/33/33 31/31/31
f 32/32/32 34/34/34 35/35/35
f 32/32/32 35/35/35 33/33/33
f 34/34/34 36/36/36 37/37/37
f 34/34/34 37/37/37 35/35/35
f 36/36/36 38/38/38 39/39/39
f 36/36/36 39/39/39 37/37/37
f 38/38/38 40/40/40 41/41/41
f 38/38/38 41/41/41 39/39/39
f 40/40/40 42/42/42 43/43/43
f 40/40/40 43/43/43 41/41/41
f 42/42/42 44/44/44 45/45/45
f 42/42/42 45/45/45 43/43/43
f 44/44/44 46/46/46 47/47/47
f 44/44/44 47/47/47 45/45/45
f 46/46/46 48/48/48 49/49/49
f 46/46/46 49/49/49 47/47/47
f 48/48/48 50/50/50 51/51/51
f 48/48/48 51/51/51 49/49/49
f 50/50/50 52/52/52 53/53/53
f 50/50/50 53/53/53 51/51/51
f 52/52/52 14/14/14 16/16/16
f 52/52/52 16/16/16 53/53/53
f 54/54/54 55/55/55 23/23/23
f 54/54/54 23/23/23 22/22/22
f 56/56/56 57/57/57 27/27/27
f 56/56/56 27/27/27 26/26/26
f 57/57/57 58/58/58 30/30/30
f 57/57/57 30/30/30 27/27/27
f 58/58/58 59/59/59 32/32/32
f 58/58/58 32/32/32 30/30/30
f 59/59/59 60/60/60 34/34/34
f 59/59/59 34/34/34 32/32/32
f 60/60/60 61/61/61 36/36/36
f 60/60/60 36/36/36 34/34/34
f 61/61/61 62/62/62 38/38/38
f 61/61/61 38/38/38 36/36/36
f 62/62/62 63/63/63 40/40/40
f 62/62/62 40/40/40 38/38/38
f 63/63/63 64/64/64 42/42/42
f 63/63/63 42/42/42 40/40/40
f 64/64/64 65/65/65 44/44/44
f 64/64/64 44/44/44 42/42/42
f 65/65/65 66/66/66 46/46/46
f 65/65/65 46/46/46 44/44/44
f 66/66/66 67/67/67 48/48/48
f 66/66/66 48/48/48 46/46/46
f 67/67/67 68/68/68 50/50/50
f 67/67/67 50/50/50 48/48/48
f 68/68/68 69/69/69 52/52/52
f 68/68/68 52/52/52 50/50/50
f 69/69/69 8/8/8 14/14/14
f 69/69/69 14/14/14 52/52/52
f 70/70/70 71/71/71 55/55/55
f 70/70/70 55/55/55 54/54/54
f 72/72/72 73/73/73 57/57/57
f 72/72/72 57/57/57 56/56/56
f 73/73/73 74/74/74 58/58/58
f 73/73/73 58/58/58 57/57/57
f 74/74/74 75/75/75 59/59/59
f 74/74/74 59/59/59 58/58/58
f 75/75/75 76/76/76 60/60/60
f 75/75/75 60/60/60 59/59/59
f 76/76/76 77/77/77 61/61/61
f 76/76/76 61/61/61 60/60/60
f 77/77/77 78/78/78 62/62/62
f 77/77/77 62/62/62 61/61/61
f 78/78/78 79/79/79 63/63/63
f 78/78/78 63/63/63 62/62/62
f 79/79/79 80/80/80 64/64/64
f 79/79/79 64/64/64 63/63/63
f 80/80/80 81/81/81 65/65/65
f 80/80/80 65/65/65 64/64/64
f 81/81/81 82/82/82 66/66/66
f 81/81/81 66/66/66 65/65/65
f 82/82/82 83/83/83 67/67/67
f 82/82/82 67/67/67 66/66/66
f 83/83/83 84/84/84 68/68/68
f 83/83/83 68/68/68 67/67/67
f 84/84/84 85/85/85 69/69/69
f 84/84/84 69/69/69 68/68/68
f 85/85/85 6/6/6 8/8/8
f 85/85/85 8/8/8 69/69/69
f 86/86/86 87/87/87 71/71/71
f 86/86/86 71/71/71 70/70/70
f 88/88/88 89/89/89 73/73/73
f 88/88/88 73/73/73 72/72/72
f 89/89/89 90/90/90 74/74/74
f 89/89/89 74/74/74 73/73/73
f 90/90/90 91/91/91 75/75/75
f 90/90/90 75/75/75 74/74/74
f 91/91/91 92/92/92 76/76/76
f 91/91/91 76/76/76 75/75/75
f 92/92/92 93/93/93 77/77/77
f 92/92/92 77/77/77 76/76/76
f 93/93/93 94/94/94 78/78/78
f 93/93/93 78/78/78 77/77/77
f 94/94/94 95/95/95 79/79/79
f 94/94/94 79/79/79 78/78/78
f 95/95/95 96/96/96 80/80/80
f 95/95/95 80/80/80 79/79/79
f 96/96/96 97/97/97 81/81/81
f 96/96/96 81/81/81 80/80/80
f 97/97/97 98/98/98 82/82/82
f 97/97/97 82/82/82 81/81/81
f 98/98/98 99/99/99 83/83/83
f 98/98/98 83/83/83 82/82/82
f 99/99/99 100/100/100 84/84/84
f 99/99/99 84/84/84 83/83/83
f 100/100/100 101/101/101 85/85/85
f 100/100/100 85/85/85 84/84/84
f 101/101/101 4/4/4 6/6/6
f 101/101/101 6/6/6 85/85/85
f 102/102/102 103/103/103 87/87/87
f 102/102/102 87/87/87 86/86/86
f 104/104/104 105/105/105 89/89/89
f 104/104/104 89/89/89 88/88/88
f 105/105/105 106/106/106 90/90/90
f 105/105/105 90/90/90 89/89/89
f 106/106/106 107/107/107 91/91/91
f 106/106/106 91/91/91 90/90/90
f 107/107/107 108/108/108 92/92/92
f 107/107/107 92/92/92 91/91/91
f 108/108/108 109/109/109 93/93/93
f 108/108/108 93/93/93 92/92/92
f 109/109/109 110/110/110 94/94/94
f 109/109/109 94/94/94 93/93/93
f 110/110/110 111/111/111 95/95/95
f 110/110/110 95/95/95 94/94/94
f 111/111/111 112/112/112 96/96/96
f 111/111/111 96/96/96 95/95/95
f 112/112/112 113/113/113 97/97/97
f 112/112/112 97/97/97 96/96/96
f 113/113/113 114/114/114 98/98/98
f 113/113/113 98/98/98 97/97/97
f 114/114/114 115/115/115 99/99/99
f 114/114/114 99/99/99 98/98/98
f 115/115/115 116/116/116 100/100/100
f 115/115/115 100/100/100 99/99/99
f 116/116/116 117/117/117 101/101/101
f 116/116/116 101/101/101 100/100/100
f 117/117/117 1/1/1 4/4/4
f 117/117/117 4/4/4 101/101/101
f 118/118/118 119/119/119 120/120/120
f 118/118/118 120/120/120 121/121/121
f 122/122/122 9/9/9 12/12/12
f 122/122/122 12/12/12 123/123/123
f 10/10/10 124/124/124 125/125/125
f 10/10/10 125/125/125 11/11/11
f 126/126/126 127/127/127 119/119/119
f 126/126/126 119/119/119 118/118/118
f 128/128/128 126/126/126 118/118/118
f 128/128/128 118/118/118 129/129/129
f 130/130/130 121/121/121 131/131/131
f 130/130/130 131/131/131 132/132/132
f 12/12/12 11/11/11 133/133/133
f 12/12/12 133/133/133 134/134/134
f 129/129/129 118/118/118 121/121/121
f 129/129/129 121/121/121 130/130/130
f 123/123/123 12/12/12 134/134/134
f 123/123/123 134/134/134 135/135/135
f 11/11/11 125/125/125 136/136/136
f 11/11/11 136/136/136 133/133/133
f 137/137/137 138/138/138 139/139/139
f 137/137/137 139/139/139 140/140/140
f 135/135/135 134/134/134 141/141/141
f 135/135/135 141/141/141 142/142/142
f 133/133/133 136/136/136 138/138/138
f 133/133/133 138/138/138 137/137/137
f 121/121/121 120/120/120 143/143/143
f 121/121/121 143/143/143 131/131/131
f 134/134/134 133/133/133 137/137/137
f 134/134/134 137/137/137 141/141/141
f 144/144/144 145/145/145 146/146/146
f 144/144/144 146/146/146 147/147/147
f 144/144/144 147/147/147 148/148/148
f 131/131/131 143/143/143 149/149/149
f 131/131/131 149/149/149 150/150/150
f 141/141/141 137/137/137 140/140/140
f 141/141/141 140/140/140 151/151/151
f 132/132/132 131/131/131 150/150/150
f 132/132/132 150/150/150 152/152/152
f 142/142/142 141/141/141 151/151/151
f 142/142/142 151/151/151 153/153/153
